<mxfile host="app.diagrams.net" modified="2021-05-11T02:11:47.355Z" agent="5.0 (Windows NT 10.0; Win64; x64) AppleWebKit/537.36 (KHTML, like Gecko) Chrome/90.0.4430.93 Safari/537.36 Edg/90.0.818.56" etag="WMKZycvmotHHACA51TxB" version="14.6.11" type="github">
  <diagram id="4HsHXw3ZQCSW11gquB9y" name="第 1 页">
    <mxGraphModel dx="1483" dy="760" grid="1" gridSize="10" guides="1" tooltips="1" connect="1" arrows="1" fold="1" page="1" pageScale="1" pageWidth="827" pageHeight="1169" math="0" shadow="0">
      <root>
        <mxCell id="0" />
        <mxCell id="1" parent="0" />
        <mxCell id="jHOY7dcu4dNnJ-vpZBeA-3" value="" style="edgeStyle=orthogonalEdgeStyle;rounded=0;orthogonalLoop=1;jettySize=auto;html=1;" parent="1" source="jHOY7dcu4dNnJ-vpZBeA-1" target="jHOY7dcu4dNnJ-vpZBeA-2" edge="1">
          <mxGeometry relative="1" as="geometry" />
        </mxCell>
        <mxCell id="jHOY7dcu4dNnJ-vpZBeA-1" value="&lt;font style=&quot;font-size: 16px&quot;&gt;开始&lt;/font&gt;" style="rounded=0;whiteSpace=wrap;html=1;sketch=0;shadow=0;glass=0;" parent="1" vertex="1">
          <mxGeometry x="330" y="40" width="90" height="50" as="geometry" />
        </mxCell>
        <mxCell id="jHOY7dcu4dNnJ-vpZBeA-5" value="" style="edgeStyle=orthogonalEdgeStyle;rounded=0;orthogonalLoop=1;jettySize=auto;html=1;" parent="1" source="jHOY7dcu4dNnJ-vpZBeA-2" edge="1">
          <mxGeometry relative="1" as="geometry">
            <mxPoint x="220" y="160" as="targetPoint" />
          </mxGeometry>
        </mxCell>
        <mxCell id="VBL8st5N_TpSc16xVgnp-67" value="" style="edgeStyle=elbowEdgeStyle;rounded=0;orthogonalLoop=1;jettySize=auto;elbow=vertical;html=1;" edge="1" parent="1" source="jHOY7dcu4dNnJ-vpZBeA-2" target="jHOY7dcu4dNnJ-vpZBeA-7">
          <mxGeometry relative="1" as="geometry" />
        </mxCell>
        <mxCell id="jHOY7dcu4dNnJ-vpZBeA-2" value="&lt;font style=&quot;font-size: 16px&quot;&gt;账号是否存在&lt;/font&gt;" style="rhombus;whiteSpace=wrap;html=1;" parent="1" vertex="1">
          <mxGeometry x="280" y="120" width="190" height="80" as="geometry" />
        </mxCell>
        <mxCell id="VBL8st5N_TpSc16xVgnp-2" value="" style="edgeStyle=orthogonalEdgeStyle;rounded=0;orthogonalLoop=1;jettySize=auto;html=1;" edge="1" parent="1" source="jHOY7dcu4dNnJ-vpZBeA-6" target="VBL8st5N_TpSc16xVgnp-1">
          <mxGeometry relative="1" as="geometry" />
        </mxCell>
        <mxCell id="jHOY7dcu4dNnJ-vpZBeA-6" value="&lt;font style=&quot;font-size: 16px&quot;&gt;登录&lt;/font&gt;" style="rounded=0;whiteSpace=wrap;html=1;sketch=0;shadow=0;glass=0;" parent="1" vertex="1">
          <mxGeometry x="130" y="135" width="90" height="50" as="geometry" />
        </mxCell>
        <mxCell id="VBL8st5N_TpSc16xVgnp-60" value="" style="edgeStyle=elbowEdgeStyle;rounded=0;orthogonalLoop=1;jettySize=auto;elbow=vertical;html=1;" edge="1" parent="1" source="jHOY7dcu4dNnJ-vpZBeA-7" target="VBL8st5N_TpSc16xVgnp-59">
          <mxGeometry relative="1" as="geometry" />
        </mxCell>
        <mxCell id="jHOY7dcu4dNnJ-vpZBeA-7" value="&lt;font style=&quot;font-size: 16px&quot;&gt;注册&lt;/font&gt;" style="rounded=0;whiteSpace=wrap;html=1;sketch=0;shadow=0;glass=0;" parent="1" vertex="1">
          <mxGeometry x="330" y="242.5" width="90" height="50" as="geometry" />
        </mxCell>
        <mxCell id="VBL8st5N_TpSc16xVgnp-4" value="" style="edgeStyle=orthogonalEdgeStyle;rounded=0;orthogonalLoop=1;jettySize=auto;html=1;" edge="1" parent="1" source="VBL8st5N_TpSc16xVgnp-1" target="VBL8st5N_TpSc16xVgnp-3">
          <mxGeometry relative="1" as="geometry" />
        </mxCell>
        <mxCell id="VBL8st5N_TpSc16xVgnp-1" value="&lt;font style=&quot;font-size: 16px&quot;&gt;输入用户信息&lt;/font&gt;" style="whiteSpace=wrap;html=1;rounded=0;shadow=0;glass=0;sketch=0;" vertex="1" parent="1">
          <mxGeometry x="115" y="240" width="120" height="60" as="geometry" />
        </mxCell>
        <mxCell id="VBL8st5N_TpSc16xVgnp-6" value="" style="edgeStyle=orthogonalEdgeStyle;rounded=0;orthogonalLoop=1;jettySize=auto;html=1;" edge="1" parent="1" source="VBL8st5N_TpSc16xVgnp-3" target="VBL8st5N_TpSc16xVgnp-5">
          <mxGeometry relative="1" as="geometry" />
        </mxCell>
        <mxCell id="VBL8st5N_TpSc16xVgnp-3" value="&lt;font style=&quot;font-size: 16px&quot;&gt;非空验证&lt;/font&gt;" style="rhombus;whiteSpace=wrap;html=1;rounded=0;shadow=0;glass=0;sketch=0;" vertex="1" parent="1">
          <mxGeometry x="97.5" y="340" width="155" height="80" as="geometry" />
        </mxCell>
        <mxCell id="VBL8st5N_TpSc16xVgnp-5" value="&lt;span style=&quot;font-size: 16px&quot;&gt;密码验证&lt;/span&gt;" style="rhombus;whiteSpace=wrap;html=1;rounded=0;shadow=0;glass=0;sketch=0;" vertex="1" parent="1">
          <mxGeometry x="97.5" y="450" width="155" height="80" as="geometry" />
        </mxCell>
        <mxCell id="VBL8st5N_TpSc16xVgnp-7" value="&lt;font style=&quot;font-size: 16px&quot;&gt;Y&lt;/font&gt;" style="text;html=1;resizable=0;autosize=1;align=center;verticalAlign=middle;points=[];fillColor=none;strokeColor=none;rounded=0;" vertex="1" parent="1">
          <mxGeometry x="195" y="430" width="30" height="20" as="geometry" />
        </mxCell>
        <mxCell id="VBL8st5N_TpSc16xVgnp-53" value="" style="endArrow=none;html=1;exitX=0;exitY=0.5;exitDx=0;exitDy=0;" edge="1" parent="1" source="VBL8st5N_TpSc16xVgnp-5">
          <mxGeometry width="50" height="50" relative="1" as="geometry">
            <mxPoint x="110" y="300" as="sourcePoint" />
            <mxPoint x="30" y="490" as="targetPoint" />
          </mxGeometry>
        </mxCell>
        <mxCell id="VBL8st5N_TpSc16xVgnp-54" value="" style="endArrow=none;html=1;" edge="1" parent="1">
          <mxGeometry width="50" height="50" relative="1" as="geometry">
            <mxPoint x="30" y="720" as="sourcePoint" />
            <mxPoint x="30" y="160" as="targetPoint" />
          </mxGeometry>
        </mxCell>
        <mxCell id="VBL8st5N_TpSc16xVgnp-55" value="" style="endArrow=classic;html=1;entryX=0;entryY=0.5;entryDx=0;entryDy=0;" edge="1" parent="1" target="jHOY7dcu4dNnJ-vpZBeA-6">
          <mxGeometry width="50" height="50" relative="1" as="geometry">
            <mxPoint x="30" y="160" as="sourcePoint" />
            <mxPoint x="160" y="340" as="targetPoint" />
          </mxGeometry>
        </mxCell>
        <mxCell id="VBL8st5N_TpSc16xVgnp-56" value="" style="endArrow=none;html=1;exitX=0;exitY=0.5;exitDx=0;exitDy=0;" edge="1" parent="1" source="VBL8st5N_TpSc16xVgnp-3">
          <mxGeometry width="50" height="50" relative="1" as="geometry">
            <mxPoint x="110" y="390" as="sourcePoint" />
            <mxPoint x="30" y="380" as="targetPoint" />
          </mxGeometry>
        </mxCell>
        <mxCell id="VBL8st5N_TpSc16xVgnp-57" value="&lt;span style=&quot;font-size: 16px&quot;&gt;N&lt;/span&gt;" style="text;html=1;resizable=0;autosize=1;align=center;verticalAlign=middle;points=[];fillColor=none;strokeColor=none;rounded=0;" vertex="1" parent="1">
          <mxGeometry x="50" y="350" width="30" height="20" as="geometry" />
        </mxCell>
        <mxCell id="VBL8st5N_TpSc16xVgnp-58" value="&lt;span style=&quot;font-size: 16px&quot;&gt;N&lt;/span&gt;" style="text;html=1;resizable=0;autosize=1;align=center;verticalAlign=middle;points=[];fillColor=none;strokeColor=none;rounded=0;" vertex="1" parent="1">
          <mxGeometry x="50" y="460" width="30" height="20" as="geometry" />
        </mxCell>
        <mxCell id="VBL8st5N_TpSc16xVgnp-63" value="" style="edgeStyle=elbowEdgeStyle;rounded=0;orthogonalLoop=1;jettySize=auto;elbow=vertical;html=1;" edge="1" parent="1" source="VBL8st5N_TpSc16xVgnp-59" target="VBL8st5N_TpSc16xVgnp-61">
          <mxGeometry relative="1" as="geometry" />
        </mxCell>
        <mxCell id="VBL8st5N_TpSc16xVgnp-59" value="&lt;font style=&quot;font-size: 16px&quot;&gt;填写个人信息&lt;/font&gt;" style="whiteSpace=wrap;html=1;rounded=0;shadow=0;glass=0;sketch=0;" vertex="1" parent="1">
          <mxGeometry x="315" y="347.5" width="120" height="60" as="geometry" />
        </mxCell>
        <mxCell id="VBL8st5N_TpSc16xVgnp-65" value="" style="edgeStyle=elbowEdgeStyle;rounded=0;orthogonalLoop=1;jettySize=auto;elbow=vertical;html=1;" edge="1" parent="1" source="VBL8st5N_TpSc16xVgnp-61" target="VBL8st5N_TpSc16xVgnp-62">
          <mxGeometry relative="1" as="geometry" />
        </mxCell>
        <mxCell id="VBL8st5N_TpSc16xVgnp-61" value="&lt;font style=&quot;font-size: 16px&quot;&gt;非空验证&lt;/font&gt;" style="rhombus;whiteSpace=wrap;html=1;rounded=0;shadow=0;glass=0;sketch=0;" vertex="1" parent="1">
          <mxGeometry x="297.5" y="447.5" width="155" height="80" as="geometry" />
        </mxCell>
        <mxCell id="VBL8st5N_TpSc16xVgnp-76" value="" style="edgeStyle=elbowEdgeStyle;rounded=0;orthogonalLoop=1;jettySize=auto;elbow=vertical;html=1;" edge="1" parent="1" source="VBL8st5N_TpSc16xVgnp-62" target="VBL8st5N_TpSc16xVgnp-75">
          <mxGeometry relative="1" as="geometry" />
        </mxCell>
        <mxCell id="VBL8st5N_TpSc16xVgnp-62" value="&lt;font style=&quot;font-size: 16px&quot;&gt;输入格式验证&lt;/font&gt;" style="rhombus;whiteSpace=wrap;html=1;rounded=0;shadow=0;glass=0;sketch=0;" vertex="1" parent="1">
          <mxGeometry x="297.5" y="557.5" width="155" height="80" as="geometry" />
        </mxCell>
        <mxCell id="VBL8st5N_TpSc16xVgnp-66" value="&lt;font style=&quot;font-size: 16px&quot;&gt;Y&lt;/font&gt;" style="text;html=1;resizable=0;autosize=1;align=center;verticalAlign=middle;points=[];fillColor=none;strokeColor=none;rounded=0;" vertex="1" parent="1">
          <mxGeometry x="390" y="537.5" width="30" height="20" as="geometry" />
        </mxCell>
        <mxCell id="VBL8st5N_TpSc16xVgnp-68" value="" style="endArrow=none;html=1;entryX=1;entryY=0.5;entryDx=0;entryDy=0;" edge="1" parent="1" target="VBL8st5N_TpSc16xVgnp-61">
          <mxGeometry width="50" height="50" relative="1" as="geometry">
            <mxPoint x="530" y="488" as="sourcePoint" />
            <mxPoint x="100" y="300" as="targetPoint" />
          </mxGeometry>
        </mxCell>
        <mxCell id="VBL8st5N_TpSc16xVgnp-69" value="" style="endArrow=none;html=1;" edge="1" parent="1">
          <mxGeometry width="50" height="50" relative="1" as="geometry">
            <mxPoint x="530" y="490" as="sourcePoint" />
            <mxPoint x="530" y="268" as="targetPoint" />
          </mxGeometry>
        </mxCell>
        <mxCell id="VBL8st5N_TpSc16xVgnp-70" value="" style="endArrow=classic;html=1;entryX=1;entryY=0.5;entryDx=0;entryDy=0;" edge="1" parent="1" target="jHOY7dcu4dNnJ-vpZBeA-7">
          <mxGeometry width="50" height="50" relative="1" as="geometry">
            <mxPoint x="530" y="268" as="sourcePoint" />
            <mxPoint x="100" y="300" as="targetPoint" />
          </mxGeometry>
        </mxCell>
        <mxCell id="VBL8st5N_TpSc16xVgnp-71" value="&lt;span style=&quot;font-size: 16px&quot;&gt;N&lt;/span&gt;" style="text;html=1;resizable=0;autosize=1;align=center;verticalAlign=middle;points=[];fillColor=none;strokeColor=none;rounded=0;" vertex="1" parent="1">
          <mxGeometry x="490" y="410" width="30" height="20" as="geometry" />
        </mxCell>
        <mxCell id="VBL8st5N_TpSc16xVgnp-72" value="" style="endArrow=none;html=1;entryX=1;entryY=0.5;entryDx=0;entryDy=0;" edge="1" parent="1" target="VBL8st5N_TpSc16xVgnp-62">
          <mxGeometry width="50" height="50" relative="1" as="geometry">
            <mxPoint x="530" y="598" as="sourcePoint" />
            <mxPoint x="460" y="597" as="targetPoint" />
          </mxGeometry>
        </mxCell>
        <mxCell id="VBL8st5N_TpSc16xVgnp-73" value="" style="endArrow=none;html=1;" edge="1" parent="1">
          <mxGeometry width="50" height="50" relative="1" as="geometry">
            <mxPoint x="530" y="490" as="sourcePoint" />
            <mxPoint x="530" y="600" as="targetPoint" />
          </mxGeometry>
        </mxCell>
        <mxCell id="VBL8st5N_TpSc16xVgnp-74" value="&lt;span style=&quot;font-size: 16px&quot;&gt;N&lt;/span&gt;" style="text;html=1;resizable=0;autosize=1;align=center;verticalAlign=middle;points=[];fillColor=none;strokeColor=none;rounded=0;" vertex="1" parent="1">
          <mxGeometry x="490" y="557.5" width="30" height="20" as="geometry" />
        </mxCell>
        <mxCell id="VBL8st5N_TpSc16xVgnp-75" value="&lt;font style=&quot;font-size: 16px&quot;&gt;注册成功&lt;/font&gt;" style="whiteSpace=wrap;html=1;rounded=0;shadow=0;glass=0;sketch=0;" vertex="1" parent="1">
          <mxGeometry x="315" y="690" width="120" height="60" as="geometry" />
        </mxCell>
        <mxCell id="VBL8st5N_TpSc16xVgnp-77" value="&lt;font style=&quot;font-size: 16px&quot;&gt;Y&lt;/font&gt;" style="text;html=1;resizable=0;autosize=1;align=center;verticalAlign=middle;points=[];fillColor=none;strokeColor=none;rounded=0;" vertex="1" parent="1">
          <mxGeometry x="390" y="650" width="30" height="20" as="geometry" />
        </mxCell>
        <mxCell id="VBL8st5N_TpSc16xVgnp-78" value="" style="endArrow=none;html=1;entryX=0;entryY=0.5;entryDx=0;entryDy=0;" edge="1" parent="1" target="VBL8st5N_TpSc16xVgnp-75">
          <mxGeometry width="50" height="50" relative="1" as="geometry">
            <mxPoint x="30" y="720" as="sourcePoint" />
            <mxPoint x="50" y="430" as="targetPoint" />
          </mxGeometry>
        </mxCell>
        <mxCell id="VBL8st5N_TpSc16xVgnp-79" value="&lt;font style=&quot;font-size: 16px&quot;&gt;Y&lt;/font&gt;" style="text;html=1;resizable=0;autosize=1;align=center;verticalAlign=middle;points=[];fillColor=none;strokeColor=none;rounded=0;" vertex="1" parent="1">
          <mxGeometry x="235" y="135" width="30" height="20" as="geometry" />
        </mxCell>
        <mxCell id="VBL8st5N_TpSc16xVgnp-80" value="&lt;span style=&quot;font-size: 16px&quot;&gt;N&lt;/span&gt;" style="text;html=1;resizable=0;autosize=1;align=center;verticalAlign=middle;points=[];fillColor=none;strokeColor=none;rounded=0;" vertex="1" parent="1">
          <mxGeometry x="390" y="210" width="30" height="20" as="geometry" />
        </mxCell>
      </root>
    </mxGraphModel>
  </diagram>
</mxfile>
